<?xml version="1.0" encoding="utf-8"?>
<!-- Generator: Adobe Illustrator 21.0.2, SVG Export Plug-In . SVG Version: 6.00 Build 0)  -->
<svg version="1.1" id="Layer_1" xmlns="http://www.w3.org/2000/svg" xmlns:xlink="http://www.w3.org/1999/xlink" x="0px" y="0px"
	 viewBox="0 0 595.3 841.9" style="enable-background:new 0 0 595.3 841.9;" xml:space="preserve">
<style type="text/css">
	.st0{fill:#FF263D;}
	.st1{fill:#F6EDEB;}
	.st2{fill:#C4B6B3;}
	.st3{fill:#D6C8C5;}
	.st4{fill:#160909;}
	.st5{fill:#4A3132;}
	.st6{fill:#391E1D;}
	.st7{fill:none;}
	.st8{fill:#F68085;}
	.st9{fill:#000813;}
	.st10{fill:#130F0C;}
	.st11{fill:#000813;stroke:#000813;stroke-miterlimit:10;}
	.st12{fill:url(#SVGID_1_);}
	.st13{fill:url(#SVGID_2_);}
	.st14{fill:#140705;}
	.st15{fill:#120604;}
	.st16{fill:#C8BEB8;}
	.st17{fill:#C1B6B3;}
	.st18{fill:#BFB5AC;}
	.st19{fill:#C6BAB5;}
	.st20{fill:#C4B9B7;}
	.st21{fill:#00120B;}
	.st22{fill:#6B435C;}
	.st23{fill:#6B415A;}
	.st24{fill:#F9FAFA;}
	.st25{fill:#F2F5F5;}
	.st26{fill:#E5E6E7;}
	.st27{fill:#EB97A4;}
	.st28{fill:#AF5766;}
	.st29{fill:url(#SVGID_3_);}
	.st30{fill:url(#SVGID_4_);}
</style>
<rect x="41.6" y="165.9" class="st0" width="512" height="512"/>
<path class="st1" d="M461,371.6c-2.1-4.1-7.5-14.3-17.3-25.5c-11.7-13.4-21-18.4-23.8-19.8c-2.8-1.4-13-6.6-20.3-6
	c-0.7,0.1-4,0.4-8.3,0c-2.7-0.2-5.2-0.3-5.3-0.8c-0.1-0.8,6.1-1.2,14.3-4c7.4-2.5,12.9-5.8,15.8-7.5c3.6-2.2,6.5-4.3,8.8-6
	c-1.4-0.1-3.4-0.3-5.8-0.8c-1.8-0.3-7.3-1.3-14.3-4c-2.5-1-5.7-2.3-9.3-4.3c-0.9,0.6-2.2,1.3-3.8,2c-6.7,3-14.1,3.6-14.5,2.5
	c-0.3-0.8,3.3-1.9,12.8-7.3c10.9-6.1,15.6-9.9,18-12c2.6-2.2,4.5-4.2,5.8-5.5c-2.4,0.5-5.7,1.2-9.8,1.8c-2.3,0.3-11.7,1.5-26.8,0.3
	c-13.9-1.2-17.8-3.2-20.5-5.5c-2.1-1.8-3.8-3.3-4-5.5c-0.6-7.5,16.7-15.7,30.5-18.5c2.8-0.6,5.2-0.8,6.8-1c-3.1-0.9-7.5-2-13-2.8
	c-4.5-0.6-14.7-1.7-31,1c-7.4,1.2-32.9,5.4-57,20c-3,1.8-9.3,5.8-10,5c-0.5-0.6,2.5-3.5,9.5-11c6.7-7.2,11.2-12.3,15.3-17.5
	c4.7-6,9.2-11.8,8-13.3c-1.1-1.3-5.9,2.7-16.5,6c-6.4,2-7.1,1.3-17.3,3.8c-9.1,2.2-13.6,3.2-18.5,5.5c-11,5-17.5,12.5-19,14.3
	c-7.1,8.4-10,17-11.3,22c-3.8-0.7-8.3-1.8-13.3-3.8c-8-3.2-14.1-7.4-18.3-10.8c-1.1,3.1-2.3,8.1-1.5,14c0.2,1.8,1.6,12.3,9.8,18.5
	c5.2,4,10.7,4.3,10.5,5.3c-0.2,1.1-7.3-0.1-14.8,0.8c-12.5,1.4-21.3,7.9-28.5,13.3c-9.6,7.1-15.6,14.5-19.8,20
	c-15.5,20.5-24.7,41.1-30.8,56c-10,24.5-17,41.8-22,67.3c-4.1,20.8-9,47.7-1.8,76.5c3.9,15.4,9.8,25.4,15,34.3
	c0,0,4.9,8.3,14.3,16.5c4.7,4.2,8,5.9,11.8,5.8c4.5-0.2,7.4-3.2,7.8-3.5c2.9-3,2.6-6.6,3.3-17c1-16-0.9,31.4,1-12
	c1.2-26.9,1.7-40.3,1.8-41.3c0.7-31.8,3.9-58.8,5.8-73.8c1.4-11.8,2.5-15.6,4.3-30.3c1.3-10.8,1.9-18,4-29.8c0.8-4.5,1.7-9.7,3.3-16
	c1.9-7.9,5.1-18.6,10.4-31.2c-0.1,1.9-0.4,4.7-1,8c-0.7,3.5-1.4,5.8-1,6c0.4,0.2,1.6-2.1,4.7-6c1.7-2.1,2.7-3.5,3-3.3
	c0.4,0.2-1.2,3.7-6.3,14.7c-2.3,5-3.5,7.5-3.7,8c-2.5,6.8-2.5,11.8-3,17.7c-0.6,7.2-1.5,7.9-4,20.7c-3.2,16.6-4.7,29.9-6.7,49
	c-1.2,11.3-1.9,20.3-2.3,25.7c-0.8,9.6-1.3,18-1.7,24.7c1.9,3.3,4.2,6.8,7,10.3c6.5,8.4,13.5,14.4,19.3,18.7
	c2.2,5.2,5.1,11.3,9,17.7c3.6,5.8,7.3,10.7,10.7,14.7c-0.7-3.8-1.2-8.5-1-14c0.2-4.9,0.9-9.2,1.7-12.7c0.3,2.3,0.9,4.8,1.7,7.5
	c0.3,1,0.7,2,1,3c4.5,3.3,5.7,3.8,6,3.5c0.3-0.3-0.8-1.7-2-5c-0.5-1.3-1-2.6-0.8-2.8c0.5-0.3,5.9,7.9,9.8,15.3
	c7.5,14.4,7.3,24.9,9.3,24.8c2.2-0.1,4.1-13.4,4.3-23.8c0.1-4.4-0.2-8.6,0.5-8.8c0.6-0.1,2.3,3,2.3,6.3c0,1.8-0.6,2.7,0,4
	c0.6,1.3,2,1.9,3,2.3c0-2.5,0.1-5.1,0.4-8c0.7-6.8,2.4-12.5,4.1-17c-1.3-0.6-3.1-1.5-5.3-2.8c-16.6-10-22.9-27.2-26.3-36.3
	c-7.1-19.3-6-36.7-4.5-46.5c-0.6-1-1.4-2.5-2-4.3c-2.5-7.4-0.4-14.8,0.3-14.8c0.5,0-0.3,4.1,1.3,9.5c0.8,2.6,2.6,7.2,9,13.3
	c12.5,11.9,27.7,16.2,27.8,16.3c27.2,7.8,52.2-6.5,56.9-9.3c1.4,0.8,3.4,2.1,5.9,3.6c5.9,3.6,12.9,7.8,15,9
	c14.9,8.5,34,7.8,37.5,7.6c7.9-0.4,13.8-0.7,20-4.9c6.6-4.4,9.7-10.6,11.1-14c0.2,1.2,0.4,2.7,0.1,4.4c-0.9,5.6-5.4,8.7-6.5,9.4
	c-0.4,2.1-1,5-2.1,8.4c-1.9,5.8-4.5,10.8-10.1,19.5c-6.1,9.4-9.2,14-13.5,18.9c-4.7,5.2-12,12.3-22.9,18.9
	c-0.1,4.9-0.5,10.4-1.4,16.4c-1.8,12-5.3,22-8.6,29.8c1.1-1,2.3-2.1,3.4-3.4c7.9-8.8,10.5-19.1,11.5-26.3c1.7,3,3.1,5.4,4.1,7
	c3.8,6.1,6.2,10,10.4,13.9c1.8,1.7,3.4,2.9,4.4,3.6c-0.4-1.6-0.8-3.2-1.1-5c-2-11.6,0.4-21.8,3-28.9c0,4.7,0.1,9.5,0.3,14.5
	c0.2,5.6,0.6,11.1,1,16.3c2.9-3.5,6.1-7.4,9.1-12c3.4-5,6.1-9.9,8.4-14.3c4.3-1.8,9.1-4.2,14.1-7.6c13.2-9,20.1-19.6,22.5-23.5
	c5-8.3,6.9-15.1,9.6-25.1c6.3-23.5,5.9-42.5,5.8-46.4c-0.4-11.9-2.5-21.8-6.8-41.8c-3-14.3-5-19.8-6.5-23.5
	c-5-12.5-11.6-22.1-11-22.5c0.6-0.4,8.1,11.6,9.8,10.8c1.5-0.8-3.1-12.5-3-12.5c0.1,0,6.4,14.2,12.3,35c1.5,5.3,4.7,17.4,11.3,59
	c2.8,17.8,4.2,26.8,5,33.5c0,0,3.5,32,3.8,75.3c0,2.8,0,7.8,0.4,14.8c0.3,5.6,0.9,13.5,0.9,13.5c0.2,0.7,0.6,1.8,1.5,2.8
	c1.6,1.6,3.9,1.7,5,1.8c7.6,0.2,15.5-5.7,15.5-5.8c6.4-4.8,17.4-13.1,24.5-29.8c1.9-4.5,3.1-9.3,5.5-19c3.1-12.5,4.9-23.4,5.5-27.8
	c2.8-21.2-3.2-43.3-8-60.3C492.9,432.9,482.2,412.5,461,371.6z"/>
<path class="st2" d="M127,580.4c3.2,1.8,7.5,3.4,11.2,1.9c5.2-2.1,7.1-9.5,8.8-30.9c1.8-22.7,0.9-29.7,2.5-45.5
	c1.5-14.6,4.6-31.6,6-31.5c2.6,0.3,0,50.2-4,89.5c-0.8,7.4-1.5,13.6-2,18c-0.3,0.9-1.6,4.2-5,6c-4.3,2.3-8.7,0.5-10,0
	C129.5,585.9,127.5,581.5,127,580.4z"/>
<path class="st2" d="M474.5,588.4c-0.5-1.4-6.7,1.8-12.5-1c-2.5-1.2-7.6-4.8-10.5-23c-2-12.3-1.3-20.9-1-28.5
	c0.8-22.8-2.3-44-3.5-44c-1.6,0-4.7,38.1,0,81.5c0.9,8.2,1.9,15.1,2.8,20.3c2.2,0.9,5.6,1.9,9.8,1.8C467.8,595,475,590,474.5,588.4z
	"/>
<path class="st2" d="M422,389.4c-0.2,0-0.2,0.7,0.5,12.7c0.3,4.9,0.5,11.4,0.5,19.8c0,4.3,0,17,0,17c-0.8-2.3,3.6,4,3.5,6.5
	c0,1.4-1,3.3-5,5.5c-0.2,4-0.7,10.2-2.5,17.5c-1.7,7.1-2.9,8.1-7.5,21c-5.5,15.3-4.9,16.8-8,20c-3.7,3.8-9.1,5.2-20,8
	c-15.9,4.1-20.2,2.3-26,7.5c-2.9,2.7-3.7,4.8-8.5,8.5c-5.4,4.1-7.5,3.7-10.5,6c-6.9,5.4-3.5,13.6-8,30.5
	c-3.6,13.5-9.1,20.4-7.5,21.5c1.7,1.2,10.2-4.3,15-12.5c1.9-3.3,2.7-6,5-6.5c1.2-0.2,2.6,0.2,9,5.5c5.8,4.8,7,6.4,9.1,6.3
	c1.1-0.1,2.2-0.7,5.8-5.7c4.1-5.6,7.2-9.9,10.1-16.9c1.2-2.9,2-5.4,2.5-7.2c2.5-1.4,5.1-2.9,7.8-4.5c4.8-2.9,9.2-5.9,13.2-8.8
	c3.6-2.4,8.7-6.3,13.6-12.4c6.8-8.6,9.4-17,12.4-26.7c4-13.1,5.1-23.5,5.4-26C435.9,435.6,423.4,389.1,422,389.4z"/>
<path class="st2" d="M192.8,334.4c0.4,0.2-1.1,4.9-2.9,8.7c-0.1,0.2-0.2,0.4-0.4,0.8c-2.7,5.7-3.4,6.6-3,7c0.9,1,5.6-1.8,5.8-1.5
	c0.2,0.3-3.9,2.1-6.8,5.5c-2.9,3.5-3.4,7.5-3.8,10c-3.2,26.1-3.3,31.7-3.3,31.8c-0.3,30.9-1.7,32.6-0.3,48c0.7,7.6,1.7,13.8,2.5,18
	c3,3.5,5.6,6.4,7.5,8.5c6.8,7.4,11.6,12.7,18.5,18.8c1.1,1,2.7,1.8,4.3,3.8c2.1,2.7,2.5,4.8,4.5,9.8c0,0,0.5,1.3,3,6.5
	c5.8,12.2,25.2,15.5,27.3,27.3c0.7,4.1-1.8,3.2-2.5,12.8c-0.7,8.5,1,13-2.3,17.5c-1.8,2.5-2.8,1.9-4.8,4.5c-4.6,6.1-2.3,13.8-3.3,14
	c-1.2,0.2-5.7-11.4-11-28.5c-1-3.2-3.4-10.9-6.8-11c-1.9,0-2.8,2.3-4.5,2c-3.1-0.6-3.7-9.3-4.3-9.3c-0.8,0.1,1.4,19.2-1,19.8
	c-0.9,0.2-1.7-2.2-6-8.8c-3.3-5-3.8-5.1-6-8.8c-3.5-5.8-3.3-7.2-5.5-10.8c-3.2-5-6.4-6.4-11-10.3c-2-1.6-14.2-11.8-17.3-24.8
	c-1.3-5.5-0.1-8.2,1.6-19.1c2.6-16.6,0.6-14.6,3.2-34.8c2-15.5,3.6-20.1,8.2-47.8c0.1-0.8,1-6,2.3-13c1.5-8.2,2.2-12.3,2.7-14
	c2.2-8.5,5.3-14.6,9-22C188.6,341.1,192.2,334.2,192.8,334.4z"/>
<path class="st3" d="M328.3,427.2c-12.9-9-26.6-9.5-40.9-4c-0.6-2,1.1-2.2,2.2-3c5.9-3.8,12.1-6.8,19.5-6.1
	c8.8,0.8,15.8,4.5,20.4,12.1C329.1,426.5,328.7,426.8,328.3,427.2z"/>
<path class="st4" d="M329.5,426c8,8.5,7.6,11.7-2.2,18.3c-17.4,11.6-28,11.3-44.7-9.6c-2.2-4-1-7.4,1.9-10.6
	c1.4-1.2,2.8-2.2,4.3-3.2c11-4.9,22.2-5.5,33.3-0.6C325.1,421.5,328.2,422.7,329.5,426z"/>
<path class="st5" d="M284.5,428.9c3.3-4.3,7.7-6.6,13-7.4c10.5-1.7,20.5-1,29.4,5.6c2.6,2,5.3,4.1,5.6,7.8c-1,2.5-3.1,3.3-5.4,3.9
	c-12.8,3.1-25.2,1.3-37-4.1C287.5,433.6,285.1,432.1,284.5,428.9z"/>
<path class="st6" d="M284.5,428.9c4.5,5,10.5,6.6,16.7,8.1c8.8,2.2,17.6,2.6,26.5,0.1c1.8-0.5,3.4-1.2,4.9-2.2
	c0.4,4.2-3.4,5-5.7,6.8c-4.1,3.2-8.5,6.1-13.6,7.6c-5.3,1.6-9.9,1.1-14.2-2.6c-3.3-2.9-7.1-5.2-10.3-8.1
	C286,436,284.6,432.7,284.5,428.9z"/>
<rect x="31.6" y="259.2" class="st7" width="532" height="466"/>
<ellipse transform="matrix(8.765990e-02 -0.9962 0.9962 8.765990e-02 -74.9388 804.7402)" class="st8" cx="401.9" cy="443.3" rx="10.8" ry="24.4"/>
<ellipse transform="matrix(8.765990e-02 -0.9962 0.9962 8.765990e-02 -224.0292 585.4518)" class="st8" cx="207.6" cy="415" rx="10.8" ry="24.4"/>
<path class="st9" d="M203.3,388.9c0.2,1.3,1.5,2.4,2.8,2.8c2.5,0.8,4.8-1.1,7.3-2.5c3-1.7,6.3-2.4,12.8-3.8c3.6-0.7,9.5-2,16.5-0.5
	c3.7,0.8,14.6,3,17,10c0.8,2.3,0.6,4.9,3,7.3c0.4,0.4,2.6,2.6,4.5,2c2.4-0.7,3.1-5.5,2.8-8.8c-0.7-5.9-5.5-9.8-7.5-11.3
	c-7.6-5.9-16.1-6.3-26.2-6.6c0,0-19.1-0.6-29.8,7.2C205.3,385.4,203,387,203.3,388.9z"/>
<path class="st9" d="M352,402.4c5-5.3,11.9-6,17.3-6.5c1.9-0.2,9.7-0.8,18.8,2.5c1,0.4,4.2,2.1,10.5,5.5c0,0,7.7,4.2,14,10.8
	c0.6,0.6,1.7,1.9,1.5,3.3c-0.1,0.8-0.7,1.7-1.5,2c-1.8,0.8-4.3-1.3-5.8-2.5c0,0-0.4-0.3-11.7-7.3c-3-1.8-8.2-5.1-15.3-6.2
	c-4-0.6-10-1.6-15.5,1.5c-3,1.7-6.3,3.6-8.5,7.3c-0.8,1.3-1.5,2.9-3.3,3.5c-1.6,0.5-3.8,0-4.8-1.3
	C345.7,412.3,348.5,406.1,352,402.4z"/>
<path class="st10" d="M362.5,363.8c-0.1,0.2-0.1,0.8-0.5,1.1c-4.7,4.2-9.3,8.5-14.2,12.5c-1.6,1.3-2.3,0-2.1-1.7
	c0.5-3.9,10.7-14.3,14.4-14.6C361.7,361,362.6,361.8,362.5,363.8z"/>
<path class="st11" d="M273.5,367.1c1-0.6,0.1-4.7-2.3-7.5c-0.8-1-1.1-0.9-3-2.5c-4.7-3.8-5-5.6-8-6.8c-0.5-0.2-3.7-1.3-4.8,0
	c-0.7,0.9,0,2.6,0.3,3c2.9,1.9,5,3.7,6.5,5c1.9,1.7,3.7,3.5,6.8,6C271.6,366.5,272.9,367.5,273.5,367.1z"/>
<linearGradient id="SVGID_1_" gradientUnits="userSpaceOnUse" x1="155.516" y1="340.6241" x2="122.7503" y2="456.4862">
	<stop  offset="3.198787e-02" style="stop-color:#5F5644"/>
	<stop  offset="0.5378" style="stop-color:#5F5644"/>
	<stop  offset="0.6484" style="stop-color:#584A39"/>
	<stop  offset="0.8443" style="stop-color:#503A2B"/>
	<stop  offset="1" style="stop-color:#4D3526"/>
</linearGradient>
<path class="st12" d="M171.9,316.6c-1.7,8-3.5,15.9-5.2,23.9c-9.7,23.3-19.3,46.7-29,70c-2.4,13.8-4.8,27.6-7.2,41.4
	c-2.1,10.7-3.8,23.5-4.2,38c-0.3,12.7,0.4,24.2,1.7,34c-1.5,4-3,8-4.5,12c-0.9,0.5-4.3,2.5-8.8,1.7c-2.5-0.4-4.2-1.8-8.7-5.8
	c-2.6-2.4-5.9-5.5-9.7-9.2c-2.1-9.5-3.9-23.1-2.7-39.3c0.5-6.8,1.8-10.3,9.3-39.9c7-27.6,6.2-24.9,7-27.8
	c8.3-29.1,18.5-49.3,21.2-54.6c13.7-26.8,23.4-34.9,31-39.5C166.1,319,169.5,317.5,171.9,316.6z"/>
<linearGradient id="SVGID_2_" gradientUnits="userSpaceOnUse" x1="200.7977" y1="361.6031" x2="169.5753" y2="472.0081" gradientTransform="matrix(-1 0 0 1 651.0301 0)">
	<stop  offset="3.198787e-02" style="stop-color:#5F5644"/>
	<stop  offset="0.5378" style="stop-color:#5F5644"/>
	<stop  offset="0.6484" style="stop-color:#584A39"/>
	<stop  offset="0.8443" style="stop-color:#503A2B"/>
	<stop  offset="1" style="stop-color:#4D3526"/>
</linearGradient>
<path class="st13" d="M440,337.2c2.4,8.2,4.9,16.4,7.3,24.7c6.1,20.2,12.2,40.5,18.3,60.7l7,44c2.1,10.7,3.8,23.5,4.2,38
	c0.3,12.7-0.4,24.2-1.7,34c1.5,4,3,8,4.5,12c2.4-0.1,5.8-0.4,9.7-1.4c1.7-0.4,5.2-1.3,7.8-2.8c5.7-3.2,8.1-10,9.5-15.8
	c4.9-20.3,2.1-41.4,2.1-41.4c-1.7-12.9-5.1-30.6-12-51.3c-9-19.6-18.1-39.2-27.1-58.8C459.7,365.1,449.9,351.2,440,337.2z"/>
<path class="st14" d="M444.8,347.1c7.7,25.2,14.2,50.7,20.8,76.2c0.4,1.6,0.9,3.2,1.3,4.8c5.3,18.1,7.7,33.3,8.9,44.1
	c3,27.8,3.1,48.5,3.1,58.2c0,4.5-0.6,8.9,0.6,13.4c0.9,3.3,2.6,4.3,6,4.5c9.1,0.6,14.3-5,19.4-11.1c0.5,3.8-3,5.9-4,9.1
	c-5,5.1-11.3,6-17.9,5.3c-5.3-0.5-8.2-4.6-8.3-11.2c-0.1-12.3-0.1-24.7-0.4-37c-0.6-26.6-6.3-52.5-12.7-78.2
	c-5.8-23.2-11.6-46.4-18.7-69.3c-1.6-5.1-1.9-10.5-1.9-15.8C442.7,342.1,440.6,346.4,444.8,347.1z"/>
<path class="st15" d="M131.7,423.7c1.6-9.7,5.5-18.7,8.6-27.8c5.4-15.7,12.6-30.7,19.7-45.6c4.8-10,9.2-20.3,8.9-31.8
	c1.2-1.2,2.5-2.5,3.7-3.7c0.9,16.1-5.8,30.1-12.6,44c-8.3,17.2-16.1,34.7-21.2,53.1c-9.1,32.9-12.8,66.5-11.2,100.7
	c0.2,5,1,10,0.1,14.9c-2.3,11.9-13.2,15.8-22.8,8.2c-1.7-1.3-3.2-2.9-4.8-4.4c-1-1-1.3-0.5-1.6,0.5c-0.6-3-1.4-6-0.7-9.1
	c3.6,3.6,6.1,8.2,10.5,11.1c3.5,2.3,7.1,2.8,10.8,1.1c3.9-1.8,4.6-5.4,4.6-9.2c0-10.4,0.6-20.9,0-31.3c-0.5-9,0.6-18.3,2.7-36.9
	c1.1-9.3,2.2-16.6,2.7-19.6C130.1,432.4,131,427.6,131.7,423.7z"/>
<path class="st16" d="M392.2,320.7c-4.3,2.4-8.2-0.2-12.4-1c5.3-1.9,10.7-3.5,15.6-6c-0.3-1.9-2.1-0.2-2.9-1.5
	c5.8-1.7,10.6-4.9,16.9-7.9c-6.8-1-12.4-2.1-18.1-2.6c-5-0.5-9.5-2.4-14.3-3.4c-0.1,0-0.1-0.3-0.1-0.4c0.1-0.1,0.2-0.2,0.4-0.3
	c5.4,0.7,10-1.9,14.9-3.4c1.2-0.4,2.1-1.8,3.6-1c8.8,4.9,18.6,6.8,29.2,8.6c-11.9,8.7-24.6,13.7-37.8,18.3
	C388.8,321.1,390.6,320.3,392.2,320.7z"/>
<path class="st17" d="M279.2,267.7c-7.7,2.5-14.3,8-23.7,7.9c4.3-3.9,9.2-5.6,12.7-9.2c7.5-5.2,14.3-11.3,21-17.4
	c4.4-4,8.5-8.5,12.8-12.6c1.1-1,1.8-3.1,4-1.9c-4.8,8.7-11.3,15.9-18.4,22.6c-2.8,2.6-5.5,5.3-8.1,8.1
	C279,265.7,277,266.6,279.2,267.7z"/>
<path class="st18" d="M352.3,263.7c-2.1,1.6-0.9,5.3-4,6.2c-0.4-8.4,9-22.6,18-25.3c2.3-0.7,4.9-1,6.7-2.9c5.4-0.6,10.5,1,16.9,2.3
	C375.2,247.9,361.1,250.9,352.3,263.7z"/>
<path class="st19" d="M385.1,292.5c-1.6-2-4.2-1.5-7.4-2.8c8.3-2.9,15.6-5.7,23.6-9.4c-6.4-1.5-12-2.5-17.3-4.5
	c9.6,0,19.2-0.9,29.9-3.8C405.3,281.6,395.7,287.8,385.1,292.5z"/>
<path class="st20" d="M197.1,264.4c3.3,12,8.6,22.9,16.8,32.4c0.8,1,2.2,1.6,2.1,3.2C200.2,295.4,191,278.1,197.1,264.4z"/>
<path class="st21" d="M507.3,515.9c-0.6,4.4-2.4,15.2-5.5,27.8c-2.4,9.7-3.6,14.5-5.5,19c-7.1,16.7-18.1,24.9-24.5,29.8
	c0,0-7.9,6-15.5,5.8c-1.1,0-3.4-0.1-5-1.8c-0.9-0.9-1.3-2.1-1.5-2.8c0,0-0.6-7.9-0.9-13.5c-0.4-6.9-0.4-12-0.4-14.8
	c-0.2-43.3-3.8-75.2-3.8-75.3c-0.8-6.7-2.2-15.7-5-33.5c-6.6-41.6-9.8-53.7-11.3-59c-5.8-20.8-12.2-35-12.3-35
	c-0.1,0,4.5,11.7,3,12.5c-1.6,0.8-9.1-11.1-9.8-10.8c-0.6,0.4,6,10,11,22.5c1.5,3.7,3.5,9.2,6.5,23.5c4.3,19.9,6.4,29.9,6.8,41.8
	c0.1,3.9,0.6,22.9-5.8,46.4c-2.7,10-4.6,16.8-9.6,25.1c-2.4,3.9-9.3,14.5-22.5,23.5c-5,3.4-9.9,5.9-14.1,7.6
	c-2.2,4.4-5,9.2-8.4,14.3c-3.1,4.6-6.2,8.5-9.1,12c-0.4-5.2-0.8-10.6-1-16.3c-0.2-5-0.3-9.8-0.3-14.5c-2.6,7.1-5,17.3-3,28.9
	c0.3,1.8,0.7,3.4,1.1,5c-1-0.7-2.6-1.9-4.4-3.6c-4.1-3.9-6.6-7.8-10.4-13.9c-1-1.6-2.5-4-4.1-7c-1,7.1-3.6,17.4-11.5,26.3
	c-1.1,1.2-2.2,2.4-3.4,3.4c3.4-7.7,6.8-17.7,8.6-29.8c0.9-5.9,1.3-11.4,1.4-16.4c10.8-6.6,18.2-13.7,22.9-18.9
	c4.3-4.8,7.4-9.5,13.5-18.9c5.7-8.7,8.2-13.7,10.1-19.5c1.1-3.4,1.7-6.3,2.1-8.4c1.1-0.7,5.6-3.8,6.5-9.4c0.3-1.7,0.1-3.2-0.1-4.4
	c-1.4,3.4-4.6,9.6-11.1,14c-6.2,4.1-12.1,4.5-20,4.9c-3.5,0.2-22.6,0.8-37.5-7.6c-2.1-1.2-9.1-5.4-15-9c-2.5-1.5-4.5-2.8-5.9-3.6
	c-4.7,2.8-29.7,17-56.9,9.3c0,0-15.3-4.4-27.8-16.3c-6.4-6.1-8.2-10.6-9-13.3c-1.6-5.4-0.8-9.5-1.3-9.5c-0.6,0-2.8,7.3-0.3,14.8
	c0.6,1.8,1.4,3.2,2,4.3c-1.5,9.8-2.6,27.2,4.5,46.5c3.3,9,9.6,26.2,26.3,36.3c2.1,1.3,4,2.2,5.3,2.8c-1.7,4.5-3.4,10.2-4.1,17
	c-0.3,2.9-0.4,5.5-0.4,8c-1-0.3-2.4-1-3-2.3c-0.6-1.3,0-2.2,0-4c0.1-3.3-1.6-6.3-2.3-6.3c-0.7,0.1-0.4,4.3-0.5,8.8
	c-0.1,10.3-2,23.6-4.3,23.8c-2,0.1-1.7-10.3-9.3-24.8c-3.9-7.4-9.2-15.5-9.8-15.3c-0.2,0.1,0.3,1.5,0.8,2.8c1.2,3.3,2.3,4.7,2,5
	c-0.3,0.3-1.5-0.2-6-3.5c-0.3-1-0.7-2-1-3c-0.8-2.7-1.3-5.2-1.7-7.5c-0.8,3.5-1.5,7.7-1.7,12.7c-0.2,5.5,0.3,10.2,1,14
	c-3.4-4-7.1-8.9-10.7-14.7c-3.9-6.4-6.8-12.4-9-17.7c-5.9-4.3-12.8-10.3-19.3-18.7c-2.8-3.6-5.1-7.1-7-10.3c0.4-6.7,0.9-15,1.7-24.7
	c0.4-5.4,1.1-14.3,2.3-25.7c2-19.1,3.4-32.4,6.7-49c2.5-12.8,3.4-13.5,4-20.7c0.5-5.8,0.5-10.8,3-17.7c0.2-0.5,1.4-3,3.7-8
	c5.1-11,6.7-14.4,6.3-14.7c-0.3-0.2-1.3,1.2-3,3.3c-3.1,3.9-4.2,6.2-4.7,6c-0.4-0.2,0.3-2.5,1-6c0.6-3.3,0.9-6.1,1-8
	c-5.4,12.5-8.5,23.3-10.4,31.2c-1.5,6.3-2.5,11.5-3.3,16c-2.1,11.8-2.7,18.9-4,29.8c-1.8,14.6-2.8,18.4-4.3,30.3
	c-1.8,15-5.1,41.9-5.8,73.8c0,1-0.6,14.4-1.8,41.3c-1.9,43.4,0-4-1,12c-0.7,10.4-0.3,14-3.3,17c-0.3,0.3-3.3,3.3-7.8,3.5
	c-3.7,0.2-7-1.6-11.8-5.8c-9.3-8.2-14.2-16.5-14.3-16.5c-5.2-8.8-11.1-18.8-15-34.3c-7.3-28.8-2.3-55.7,1.8-76.5
	c5-25.5,12-42.7,22-67.3c6.1-14.9,15.3-35.5,30.8-56c4.1-5.5,10.2-12.9,19.8-20c7.2-5.3,16-11.8,28.5-13.3
	c7.5-0.8,14.6,0.4,14.8-0.8c0.2-1-5.3-1.3-10.5-5.3c-8.2-6.2-9.5-16.7-9.8-18.5c-0.8-5.9,0.4-10.9,1.5-14
	c4.1,3.4,10.2,7.6,18.3,10.8c4.9,1.9,9.4,3.1,13.3,3.8c1.2-5,4.1-13.6,11.3-22c1.5-1.8,8-9.2,19-14.3c4.9-2.3,9.4-3.3,18.5-5.5
	c10.1-2.4,10.9-1.7,17.3-3.8c10.6-3.3,15.4-7.3,16.5-6c1.2,1.4-3.3,7.2-8,13.3c-4.1,5.2-8.6,10.3-15.3,17.5c-7,7.5-10,10.4-9.5,11
	c0.7,0.8,7-3.2,10-5c24.1-14.6,49.6-18.8,57-20c16.3-2.7,26.5-1.6,31-1c5.5,0.7,9.9,1.9,13,2.8c-1.6,0.2-3.9,0.4-6.8,1
	c-13.8,2.8-31.1,11-30.5,18.5c0.2,2.2,1.9,3.7,4,5.5c2.7,2.3,6.6,4.3,20.5,5.5c15,1.2,24.5,0.1,26.8-0.3c4.1-0.5,7.4-1.2,9.8-1.8
	c-1.2,1.3-3.2,3.3-5.8,5.5c-2.4,2.1-7.1,5.9-18,12c-9.4,5.3-13,6.4-12.8,7.3c0.4,1.1,7.8,0.5,14.5-2.5c1.5-0.7,2.8-1.4,3.8-2
	c3.6,1.9,6.7,3.3,9.3,4.3c7,2.7,12.5,3.7,14.3,4c2.3,0.4,4.3,0.6,5.8,0.8c-2.2,1.7-5.1,3.8-8.8,6c-2.9,1.7-8.3,5-15.8,7.5
	c-8.1,2.8-14.3,3.2-14.3,4c0.1,0.5,2.5,0.5,5.3,0.8c4.3,0.4,7.5,0.1,8.3,0c7.2-0.6,17.5,4.6,20.3,6c2.7,1.4,12.1,6.3,23.8,19.8
	c9.7,11.2,15.1,21.4,17.3,25.5c21.2,40.9,31.9,61.3,38.3,84C504,472.6,510.1,494.7,507.3,515.9z M506.5,451.4
	c-6.9-26.1-15.7-43.1-31-72.5c-13.9-26.6-21.2-35.4-28.5-42.3c-12.2-11.4-24.8-17.8-33.5-21.5c2-0.9,4.2-2.1,6.5-3.5
	c6.3-4,10.8-8.7,13.8-12.5c-3.8-0.8-7.7-1.7-11.8-2.8c-7.4-1.9-14.3-4-20.8-6.3c1.2-0.7,2.9-1.8,5-3.3c7.7-5.3,11.6-8,13.8-12.8
	c0.7-1.6,1.6-4.1,1.5-7.8c-2.3,0.8-5.5,1.9-9.5,2.8c-8.3,1.8-14.7,1.5-21.5,1.3c-4.6-0.2-12.9-0.8-22.8-4c-5-1.6-6.7-2.7-6.8-4
	c-0.2-2.5,5.4-4.9,12.2-7.9c4.4-1.9,8.1-3.2,10.3-3.9c11.8-3.9,15.8-3.8,16-5.3c0.3-2.6-12.2-6.8-24.5-8.8
	c-4.4-0.7-19.6-2.8-40.3,1.3c-7.8,1.5-18.6,4.4-30.8,10c1.6-2.2,3.2-4.6,4.8-7c3-4.6,5.7-9.2,8-13.5c0-1.9,0-3.8,0-5.8
	c-1.6,0-4,0.2-6.8,0.8c-4,0.8-6.8,2.1-7.8,2.5c-6.1,2.6-12.3,2.5-18.8,3.3c-13.8,1.6-24.5,6.7-29.3,9c-5.2,2.5-13,6.9-19.8,14
	c-3,3.1-4.9,5.9-6.3,9c-2,4.4-2.4,8.4-2.5,11c-2.7-0.5-5.7-1.3-9-2.8c-9.2-4-15-10.3-18-14.3c-1.9,1.7-4.8,4.8-6.5,9.5
	c-2.2,6-1.1,11.2-0.3,15.8c1.3,6.7,4,12.1,6.8,16.3c-15.2,2.5-24.2,8.5-29.3,12.8c-3.4,2.9-6.6,6.4-13,13.5
	c-6.1,6.7-10.8,12.4-12.5,14.5c-11.8,14.7-20.2,34.6-23.3,42c-16.3,39.3-24.4,58.9-28.8,83.3c-2.5,14.2-5.8,33.1-3.3,57.8
	c1.9,18.8,6.7,35.8,15.8,51.5c5.3,9.2,12.1,17.9,22.8,23c4.3,2.1,11.3,5.3,18,2.5c5.9-2.5,8.6-8.3,10.3-12
	c3.4-7.5,3.3-13.7,3.3-22.8c0-13.6,0.2-19.9,0.5-30.8c0.2-7.5,0.7-13.7,1-17.8c2.8,3.1,5.1,5.6,6.8,7.3c3.1,3.2,5.2,5,9,9
	c1.5,1.6,2.7,2.9,3.5,3.8c2,4.2,4.8,9.3,8.5,15c2.2,3.4,5.5,8.4,10.8,14.3c3.2,3.6,7.6,8,13.3,12.5c-0.2-1.6-0.3-3.2-0.5-4.8
	c-0.5-5.3-0.9-10.4-1.3-15.5c1.6,1.1,3.2,2.2,4.8,3.3c1.4,2,2.9,4.2,4.3,6.5c6.5,10.9,9.7,21.7,11.4,30.6c0.9-1.5,1.8-3.1,2.6-4.9
	c5.3-11.1,4.3-21.4,6-21.5c0.3,0,0.8,0.3,1.5,2c0,2.3,0.1,5.5,0.8,9.3c0.4,2.7,1.8,10.2,6,17.5c8.4,14.5,23.4,19.5,25,20
	c3.2,1,13.9,4.2,26.5,0c14.5-4.8,21.5-16,23.3-19c1.5-0.5,3-1.1,4.5-2c9.9-5.7,13.1-16.9,14-21c1.8,0.1,3.5,0.2,5.3,0.3
	c1,1.7,2.3,3.5,4,5.3c5.3,5.7,11.6,8,15.3,9c0-1.6,0-3.2,0-4.8c1.7-1.1,3.5-2.3,5.3-3.8c8.5-6.8,13.5-15,16.5-21.3
	c3.3-1.3,6.3-2.7,9-4.3c29.1-16.5,38.6-50.3,41.8-65.5c0.3,3.7,0.7,7.3,1,11c2.7,31.1,4.1,61.5,4.5,91c0,1,0.1,2.6,0.8,4.3
	c2,4.9,7.1,6.7,8.8,7.3c8.1,2.9,16.9-2,20.8-4.3c19.6-11.3,28.4-32.9,32-42.3c1.7-4.3,7.4-19.8,8.8-43.5
	C515.7,487.2,510.6,467,506.5,451.4z"/>
<path class="st22" d="M335.5,495.4c2.7-1.5,5.4-3.1,8.5-4.9c-0.6,4.2-1.2,7.8-1.7,11.5c-0.4,3,0.7,4.2,3.7,2.6c2.3-1.2,5-2,7-3.7
	c4-3.5,7.5-7.7,13.9-4.3c-4,7.8-9.5,15.5-16.1,22.4c-0.4,0.5-1.6,0.3-2.4,0.4c-1.9-2.2-4.1-2.4-7.3,0.1
	C343.3,509.9,339.7,502.6,335.5,495.4z"/>
<path class="st23" d="M220.7,470.9c2.9,3,4.8,5.1,7.8,5.4c2.4,0.2,2.1,2.3,2.5,3.8c1.1,4.2,2.9,8,5.8,11.4c1.6,2,2.9,1.9,4.3-0.1
	c2-2.8,3.5-7.5,6-8.1c2.5-0.6,3.7,5.3,7.1,6.4c2.4,0.8,2.5,1.7,1.9,4.1c-1.2,5-1.8,10.1-2.2,15.2c-0.4,4.6-4.7,4-7.1,5.5
	c-2.3,1.4-2.5-2.2-3.4-3.7c-1.7-3.1-3.8-4.6-7.2-2.7c-1.5,0.9-2.7,1-3.7-0.8C226.1,496.4,221.9,484.8,220.7,470.9z"/>
<path class="st24" d="M308.3,483.6c-0.1-0.1-0.2-0.3-0.3-0.4c-6-6.8-12.2-7-19.5-1.3c-5.2,4-11.4,5.5-16.5-0.8
	c-1.1-1.3-1.9-0.5-2.9,0.1c-2.6,1.6-5.3,3.2-8.1,4.7c-5.5,2.9-7.6,2.3-10.9-2.9c-0.9-1.5-1.7-3-2.9-5.3c-3,4.7-5.7,8.9-8.6,13.4
	c-4.2-5.5-6.3-11.4-7.6-17.7c-6.1,2.1-11-3-10.3-11c6.2,4.3,12.4,8.1,19.2,10.8c20,7.9,39.3,6.1,57.9-3.9c4-2.1,6.5-2.5,10.6,0.3
	c19.2,12.8,40.4,18.6,64,15.1c-1.2,5-2.6,6.7-7,8.5c-0.9,0.4-2.2,1.3-2.7,0.6c-3.6-4.5-5.2,0.1-6.9,1.6c-3.7,3-7.7,5.4-12.5,7.5
	c0.8-4.3,1.6-8.2,2.3-12.1c0.2-1.1,0.6-2.2-0.6-3c-1.2-0.9-2.2,0.2-3.1,0.7c-2.4,1.4-4.6,3-6.9,4.5c-4.9-0.4-6.6-4.5-8.8-7.5
	c-2.1-2.8-3.9-3.9-7-1.9C315.6,485.9,312,486.2,308.3,483.6z"/>
<path class="st25" d="M251.5,526.4c-6.8-2.7-10.2-9-14.7-14.2c-0.7-0.8-0.1-1.5,0.6-2c1-0.7,2.1-1.4,3.2-0.6
	c0.8,0.5,1.5,1.4,1.9,2.2c1.9,4,3.4,8.6,8.8,3c1.4-1.4,2.2,0.3,2.5,1.8C253.1,519.8,252.3,523.1,251.5,526.4z"/>
<path class="st26" d="M347.5,519.5c0.9,1.2,3,2.2,0.3,4c-2.3,1.5-4.2,3.5-6.3,5.3C341.9,524.6,341.7,520.1,347.5,519.5z"/>
<path class="st27" d="M260.5,489.4c-1.8,14-4.1,25.2-5.9,32.8c-3.1,13.5-5.2,18.9-6.6,30.8c-1.3,11.2-2.1,17.9,0,26.5
	c1.2,4.8,4.2,16.9,15.5,25.5c2.3,1.8,12.7,9.6,26,8c17.2-2.1,26.8-18.8,32-28c6.1-10.7,7.9-21.1,9.5-30c2.4-13.3,0.1-13.2,3-27.5
	c1.5-7.7,3.1-12.3,1.5-19c-0.5-2-1.9-7.6-7-12.5c-4.5-4.3-9.2-5.6-12.5-6.5c-4.4-1.2-8.5-2.3-11.5,0c-2.1,1.6-2.7,4-3,5.5
	c0.8,5.8,0.7,10.4,0.5,13.5c-0.3,3.8-0.7,5.3-2.5,16c-0.6,3.9-1.2,7.8-1.9,11.6c-2.6,16.3-3,18.9-3.1,18.9c-0.2,0,0.7-12.9,3-28.4
	c1.1-7.7,1.1-15.5,2.3-23.1c0.5-3.5,1.2-7.3-0.8-11.1c-1.7-3.3-5.5-6.7-9.4-6.6c-1.4,0-2.9,0.5-4,0.9c-2.7,0.9-3.4,1.7-5.4,1.9
	c-2,0.2-3.6-0.4-4.3-0.6c-3.8-1.6-4-5.1-6.3-5.1c-1.5,0-1.3,1.7-4.8,3.4c-0.9,0.5-2.1,0.9-3.4,2.1
	C261.1,488.6,260.7,489.1,260.5,489.4z"/>
<path class="st28" d="M257.6,516.9c4.7-2.7,8.9-4.1,11.6-4.9c2.3-0.6,20-5.4,25.4,1.5c0.9,1.1,1.7,2.9,2.5,2.8
	c0.9-0.2,1-2.7,1.3-5.8c0.9-9,2.4-9,1.9-12.9c-0.2-1.6-1.3-8.3-6.4-10.8c-2.8-1.4-5.8-1-6.2-0.9c-2.4,0.3-2.6,1.2-5.5,2
	c-2,0.5-4.9,1.3-7.3,0c-3-1.6-3.5-5.4-5.1-5.3c-1.1,0.1-1,1.7-3,3c-1.5,0.9-2.2,0.6-3.5,1.3c-1.4,0.8-2.2,2.2-3.1,4.7
	c-1.6,4.9-1.6,9.3-1.6,10.3C258.6,505.4,258.5,510.4,257.6,516.9z"/>
<path class="st28" d="M303.1,514.5c4.4-0.1,8,0.4,10.5,1c5,1.1,10.2,2.3,14.3,6.4c2.6,2.6,3.4,5,4.8,4.8c1.2-0.3,1.7-2.7,2.4-6.9
	c0.8-4.2,1.1-6.2,1-8.6c-0.4-5.7-3.2-9.8-4.5-11.5c-4-5.5-9-7.8-13-9.6c-2.9-1.3-5.8-2.2-9.1-2c-3.2,0.1-4.6,1.1-4.9,1.3
	c-2.5,1.8-2.9,4.9-3,5.5c-0.3,1.9,0.3,2.4,0.6,5.6c0.2,1.9,0.1,3.2,0,5.9c-0.1,2.3-0.4,5.2-1,8.7"/>
<linearGradient id="SVGID_3_" gradientUnits="userSpaceOnUse" x1="214.2608" y1="456.0573" x2="231.9663" y2="511.9171">
	<stop  offset="0" style="stop-color:#6A5F48"/>
	<stop  offset="1" style="stop-color:#4F3B31"/>
</linearGradient>
<path class="st29" d="M212.8,453.4c2,1.8,4,3.5,6,5.3c-0.5,3.4-0.9,8-0.8,13.5c0.3,7.2,1.7,19.2,8.5,32c5.8,11,13,17.8,16.8,21.3
	c2.1,1.9,3.9,3.4,5.3,4.5c-0.4,0.5-1,1.5-1.3,2.9c-0.3,1.3-0.1,2.4,0,3c-4.9-3.3-11.8-8.6-18.3-16.6c-3.1-3.8-10.3-13.6-14.5-28.3
	C209.9,474.8,211.4,460.9,212.8,453.4z"/>
<linearGradient id="SVGID_4_" gradientUnits="userSpaceOnUse" x1="376.6543" y1="487.6577" x2="349.5293" y2="526.2827">
	<stop  offset="0" style="stop-color:#6A5F48"/>
	<stop  offset="1" style="stop-color:#4F3B31"/>
</linearGradient>
<path class="st30" d="M375.3,483.9c2.8-1.4,5.7-2.8,8.5-4.3c-2.6,6.2-6.5,14.3-12.1,23.4c-2.4,3.9-6.3,10-12.3,17.1
	c-4.7,5.6-11.7,12.9-21.5,20.3c0.2-2.4,0.4-4.8,0.6-7.1c5.2-3.8,11.6-9.2,17.8-16.5c2.9-3.4,8.3-10.2,13.3-19.9
	C372.2,491.9,374,487.4,375.3,483.9z"/>
</svg>
