<svg width="790" height="414" viewBox="0 0 790 414" fill="none" xmlns="http://www.w3.org/2000/svg">
<g opacity="0.14">
<path fill-rule="evenodd" clip-rule="evenodd" d="M85 320C85 314.477 89.4772 310 95 310H179C184.523 310 189 314.477 189 320C189 325.523 184.523 330 179 330H174C167.925 330 163 334.925 163 341C163 347.075 167.925 352 174 352H239C244.523 352 249 356.477 249 362C249 367.523 244.523 372 239 372H214C207.925 372 203 376.925 203 383V383.5C203 389.299 207.701 394 213.5 394H214C219.523 394 224 398.477 224 404C224 409.523 219.523 414 214 414H90C84.4772 414 80 409.523 80 404C80 398.477 84.4772 394 90 394H91C97.0751 394 102 389.075 102 383C102 376.925 97.0751 372 91 372H56C50.4772 372 46 367.523 46 362C46 356.477 50.4772 352 56 352H100C106.075 352 111 347.075 111 341C111 334.925 106.075 330 100 330H95C89.4772 330 85 325.523 85 320Z" fill="#93CFFA"/>
<rect y="352" width="35" height="20" rx="10" fill="#93CFFA"/>
</g>
<path opacity="0.14" d="M759.907 19.5292C759.875 19.4969 759.763 19.343 759.571 19.0678C759.379 18.7925 759.171 18.4849 758.947 18.1449C758.723 17.8049 758.499 17.481 758.275 17.1734C758.051 16.8657 757.875 16.631 757.747 16.4691C757.523 16.1452 757.475 15.9185 757.603 15.789C757.731 15.6595 757.891 15.6919 758.083 15.8862C758.179 15.9833 758.347 16.129 758.587 16.3233C758.827 16.5176 759.083 16.7119 759.355 16.9062C759.627 17.1005 759.883 17.2948 760.122 17.4891C760.362 17.6834 760.546 17.8291 760.674 17.9263C761.154 18.3473 761.49 18.4606 761.682 18.2663C761.778 18.1692 761.906 18.0639 762.066 17.9506C762.226 17.8372 762.402 17.7482 762.594 17.6834C762.913 17.5215 763.105 17.1491 763.169 16.5662C763.169 16.5014 763.241 16.0805 763.385 15.3033C763.529 14.5261 763.681 13.5951 763.841 12.5102C764.001 11.4254 764.193 10.2515 764.417 8.98859C764.641 7.72565 764.833 6.52748 764.993 5.39408C765.153 4.26067 765.305 3.28109 765.449 2.45532C765.592 1.62956 765.68 1.11953 765.712 0.925228C765.776 0.342334 765.904 0.034696 766.096 0.00231307C766.288 -0.0300699 766.432 0.277568 766.528 0.925228C766.56 1.15191 766.632 1.67004 766.744 2.47961C766.856 3.28918 767 4.26067 767.176 5.39408C767.352 6.52748 767.536 7.71756 767.728 8.9643C767.92 10.211 768.088 11.3768 768.232 12.4617C768.375 13.5465 768.503 14.4532 768.615 15.1818C768.727 15.9104 768.799 16.3395 768.831 16.4691C768.895 16.6634 768.943 16.8657 768.975 17.0762C769.007 17.2867 769.103 17.4244 769.263 17.4891C769.583 17.6187 769.871 17.7806 770.127 17.9749C770.511 18.1692 770.815 18.1692 771.039 17.9749C771.103 17.9425 771.27 17.821 771.542 17.6106C771.814 17.4001 772.118 17.1653 772.454 16.9062C772.79 16.6472 773.11 16.4043 773.414 16.1776C773.718 15.9509 773.934 15.789 774.061 15.6919C774.317 15.4976 774.493 15.4166 774.589 15.449C774.685 15.4814 774.685 15.5623 774.589 15.6919C774.557 15.789 774.421 15.9914 774.181 16.299C773.942 16.6067 773.686 16.9386 773.414 17.2948C773.142 17.651 772.894 17.9911 772.67 18.3149L772.238 18.9949C771.95 19.3835 771.902 19.675 772.094 19.8693C772.19 19.9664 772.278 20.0798 772.358 20.2093C772.438 20.3388 772.526 20.5007 772.622 20.695C772.814 21.116 773.294 21.3913 774.061 21.5208C774.221 21.5532 774.677 21.6179 775.429 21.7151C776.181 21.8122 777.092 21.9418 778.164 22.1037C779.236 22.2656 780.395 22.4356 781.643 22.6137C782.89 22.7918 784.05 22.9699 785.121 23.148C786.193 23.3261 787.105 23.4719 787.857 23.5852C788.608 23.6986 789.048 23.7552 789.176 23.7552C789.56 23.82 789.728 23.9657 789.68 24.1924C789.632 24.4191 789.464 24.5486 789.176 24.581C789.08 24.6134 788.632 24.6862 787.833 24.7996C787.033 24.9129 786.065 25.0667 784.93 25.261C783.794 25.4553 782.57 25.6577 781.259 25.8682C779.947 26.0787 778.716 26.273 777.564 26.4511C776.413 26.6292 775.453 26.783 774.685 26.9126C773.918 27.0421 773.518 27.1069 773.486 27.1069C773.326 27.1392 773.174 27.1797 773.03 27.2283C772.886 27.2769 772.766 27.3821 772.67 27.544L772.382 28.1269C772.254 28.386 772.142 28.5479 772.046 28.6127C771.982 28.7098 771.926 28.8151 771.878 28.9284C771.83 29.0417 771.886 29.2118 772.046 29.4384C772.142 29.568 772.294 29.7704 772.502 30.0456C772.71 30.3209 772.942 30.6366 773.198 30.9928C773.454 31.349 773.702 31.6729 773.942 31.9643C774.181 32.2558 774.333 32.4501 774.397 32.5472C774.557 32.8063 774.581 32.952 774.469 32.9844C774.357 33.0168 774.205 32.952 774.013 32.7901C773.886 32.7253 773.67 32.5877 773.366 32.3772C773.062 32.1667 772.742 31.9319 772.406 31.6729C772.07 31.4138 771.75 31.179 771.446 30.9685C771.143 30.758 770.943 30.6204 770.847 30.5556C770.591 30.2642 770.367 30.2156 770.175 30.4099C770.079 30.5071 769.959 30.5799 769.815 30.6285C769.671 30.6771 769.535 30.7499 769.407 30.8471C769.311 30.9119 769.207 31.009 769.095 31.1385C768.983 31.2681 768.895 31.4786 768.831 31.77C768.831 31.8348 768.775 32.28 768.663 33.1058C768.551 33.9316 768.415 34.9354 768.256 36.1174C768.096 37.2994 767.904 38.5704 767.68 39.9305C767.456 41.2906 767.264 42.5778 767.104 43.7922C766.944 45.0065 766.792 46.0428 766.648 46.901C766.504 47.7591 766.432 48.2691 766.432 48.431C766.368 48.9816 766.256 49.2082 766.096 49.1111C765.936 49.0139 765.824 48.7549 765.76 48.3339C765.728 48.172 765.656 47.67 765.545 46.8281C765.433 45.9861 765.281 44.9499 765.089 43.7193C764.897 42.4888 764.681 41.1935 764.441 39.8334C764.201 38.4733 763.985 37.1942 763.793 35.996C763.601 34.7978 763.441 33.7939 763.313 32.9844C763.185 32.1748 763.121 31.7214 763.121 31.6243C763.089 31.1709 762.945 30.8795 762.69 30.7499C762.37 30.6204 762.13 30.4909 761.97 30.3613C761.81 30.2966 761.626 30.2723 761.418 30.2885C761.21 30.3047 761.074 30.3452 761.01 30.4099C760.978 30.4423 760.802 30.5799 760.482 30.8228C760.162 31.0657 759.819 31.3166 759.451 31.5757C759.083 31.8348 758.739 32.0938 758.419 32.3529C758.099 32.612 757.891 32.7577 757.795 32.7901C757.699 32.8872 757.555 32.952 757.363 32.9844C757.172 33.0168 757.172 32.9034 757.363 32.6443C757.459 32.5148 757.643 32.2639 757.915 31.8914C758.187 31.519 758.467 31.1304 758.755 30.7257C759.043 30.3209 759.307 29.9485 759.547 29.6084C759.787 29.2684 759.955 29.0498 760.05 28.9527C760.178 28.7908 760.17 28.5965 760.026 28.3698C759.883 28.1431 759.747 27.9164 759.619 27.6898C759.491 27.4631 759.315 27.3335 759.091 27.3012C758.867 27.2688 758.643 27.2202 758.419 27.1554C758.355 27.1231 757.947 27.0502 757.196 26.9369C756.444 26.8235 755.524 26.6778 754.436 26.4997C753.349 26.3216 752.181 26.1273 750.934 25.9168C749.686 25.7063 748.503 25.5201 747.383 25.3582C746.263 25.1963 745.296 25.0424 744.48 24.8967C743.664 24.751 743.177 24.6619 743.017 24.6296C742.505 24.5648 742.177 24.4191 742.033 24.1924C741.889 23.9657 742.217 23.8038 743.017 23.7066C743.304 23.6743 743.888 23.5852 744.768 23.4395C745.648 23.2938 746.655 23.1399 747.791 22.978C748.926 22.8161 750.134 22.638 751.414 22.4437C752.693 22.2494 753.869 22.0713 754.94 21.9094C756.012 21.7475 756.908 21.6099 757.627 21.4965C758.347 21.3832 758.723 21.3265 758.755 21.3265C758.915 21.2941 759.051 21.2698 759.163 21.2536C759.275 21.2374 759.379 21.1646 759.475 21.0351C759.539 20.8731 759.611 20.7274 759.691 20.5979C759.771 20.4684 759.843 20.3388 759.907 20.2093C760.098 19.9502 760.098 19.7235 759.907 19.5292Z" fill="#93CFFA"/>
<g opacity="0.14">
<path fill-rule="evenodd" clip-rule="evenodd" d="M577 149C577 143.477 581.477 139 587 139H671C676.523 139 681 143.477 681 149C681 154.523 676.523 159 671 159H667C660.373 159 655 164.373 655 171C655 177.627 660.373 183 667 183H712C717.523 183 722 187.477 722 193C722 198.523 717.523 203 712 203H676C669.373 203 664 208.373 664 215V216C664 222.075 668.925 227 675 227H676C681.523 227 686 231.477 686 237C686 242.523 681.523 247 676 247H552C546.477 247 542 242.523 542 237C542 231.477 546.477 227 552 227H552.5C558.299 227 563 222.299 563 216.5V215C563 208.373 557.627 203 551 203H529C523.477 203 519 198.523 519 193C519 187.477 523.477 183 529 183H591C597.627 183 603 177.627 603 171C603 164.373 597.627 159 591 159H587C581.477 159 577 154.523 577 149Z" fill="#93CFFA"/>
<rect x="742" y="183" width="43" height="20" rx="10" fill="#93CFFA"/>
</g>
</svg>
