<svg width="249" height="104" viewBox="0 0 249 104" fill="none" xmlns="http://www.w3.org/2000/svg">
<g opacity="0.14">
<path fill-rule="evenodd" clip-rule="evenodd" d="M85 10C85 4.47715 89.4772 0 95 0H179C184.523 0 189 4.47715 189 10C189 15.5228 184.523 20 179 20H174C167.925 20 163 24.9249 163 31C163 37.0751 167.925 42 174 42H239C244.523 42 249 46.4772 249 52C249 57.5228 244.523 62 239 62H214C207.925 62 203 66.9249 203 73V73.5C203 79.299 207.701 84 213.5 84H214C219.523 84 224 88.4771 224 94C224 99.5229 219.523 104 214 104H90C84.4772 104 80 99.5229 80 94C80 88.4771 84.4772 84 90 84H91C97.0751 84 102 79.0751 102 73C102 66.9249 97.0751 62 91 62H56C50.4772 62 46 57.5228 46 52C46 46.4772 50.4772 42 56 42H100C106.075 42 111 37.0751 111 31C111 24.9249 106.075 20 100 20H95C89.4772 20 85 15.5228 85 10Z" fill="#93CFFA"/>
<rect y="42" width="35" height="20" rx="10" fill="#93CFFA"/>
</g>
</svg>
