<svg width="266" height="108" viewBox="0 0 266 108" fill="none" xmlns="http://www.w3.org/2000/svg">
<g opacity="0.14">
<path fill-rule="evenodd" clip-rule="evenodd" d="M58 10C58 4.47715 62.4772 0 68 0H152C157.523 0 162 4.47715 162 10C162 15.5228 157.523 20 152 20H148C141.373 20 136 25.3726 136 32C136 38.6274 141.373 44 148 44H193C198.523 44 203 48.4772 203 54C203 59.5228 198.523 64 193 64H157C150.373 64 145 69.3726 145 76V77C145 83.0751 149.925 88 156 88H157C162.523 88 167 92.4771 167 98C167 103.523 162.523 108 157 108H33C27.4772 108 23 103.523 23 98C23 92.4771 27.4772 88 33 88H33.5C39.299 88 44 83.299 44 77.5V76C44 69.3726 38.6274 64 32 64H10C4.47715 64 0 59.5228 0 54C0 48.4772 4.47715 44 10 44H72C78.6274 44 84 38.6274 84 32C84 25.3726 78.6274 20 72 20H68C62.4772 20 58 15.5228 58 10Z" fill="#93CFFA"/>
<rect x="223" y="44" width="43" height="20" rx="10" fill="#93CFFA"/>
</g>
</svg>
